<svg width="127" height="34" viewBox="0 0 127 34" fill="none" xmlns="http://www.w3.org/2000/svg">
<path d="M9.56211 25.51C7.87398 25.4869 6.16273 25.4175 4.52085 25.2094C3.89647 25.1169 3.2721 25.0013 2.69397 24.8394C2.41647 24.7469 2.13897 24.6544 1.93084 24.5156C1.72272 24.4 1.60709 24.2844 1.58397 24.2381C1.58397 24.2381 1.60709 24.0069 1.65334 23.8913C1.72272 23.7756 1.81522 23.6831 2.00022 23.5906C2.37022 23.3825 2.9946 23.29 3.61897 23.2206C4.24335 23.1513 4.91398 23.105 5.60773 22.9894C5.9546 22.92 6.32461 22.8506 6.71773 22.735C7.08773 22.5963 7.52711 22.4113 7.89711 22.0413C8.26711 21.6713 8.49836 21.1163 8.52149 20.6306C8.59086 20.145 8.40586 19.5206 8.03586 19.1275C7.31898 18.3644 6.55586 18.2025 5.90835 17.9944C5.26085 17.8094 4.59023 17.6706 4.1971 17.4625C4.0121 17.37 3.9196 17.2544 3.89647 17.185C3.87335 17.1156 3.89647 16.9769 3.98897 16.7919C4.22022 16.4219 4.72898 16.0519 5.26085 15.7975C5.79273 15.5431 6.39398 15.335 7.01836 15.1731C7.27273 15.1038 7.43461 14.8494 7.38836 14.595C7.34211 14.3175 7.06461 14.1094 6.78711 14.1556C6.11648 14.2712 5.42273 14.4331 4.77523 14.6875C4.1046 14.965 3.43397 15.2888 2.87897 16.0056C2.6246 16.3525 2.39335 16.8844 2.50897 17.4856C2.6246 18.0638 3.04085 18.48 3.43397 18.7113C4.1971 19.1506 4.8446 19.2663 5.44585 19.4744C6.02398 19.6594 6.60211 19.9369 6.78711 20.145C6.85648 20.2606 6.87961 20.33 6.87961 20.4919C6.85648 20.6769 6.81023 20.7694 6.71773 20.8619C6.50961 21.07 5.9546 21.255 5.35335 21.3244C4.7521 21.4169 4.1046 21.44 3.41085 21.5325C2.7171 21.625 2.00022 21.7175 1.21397 22.1106C0.820841 22.3188 0.40459 22.6888 0.196465 23.1975C0.0808395 23.4288 0.0345894 23.7063 0.0114644 23.9144C-0.0116607 24.1225 -0.0116607 24.5157 0.12709 24.7932C0.381465 25.3944 0.820841 25.6488 1.19084 25.8569C1.56084 26.0419 1.93084 26.1575 2.27772 26.25C2.97147 26.435 3.66522 26.5275 4.35898 26.5969C6.18585 26.7588 7.98961 26.7357 9.79336 26.62C9.74711 26.5275 9.72399 26.4119 9.72399 26.3194L9.56211 25.51Z" fill="#7C93FB"/>
<path d="M20.755 8.30491L17.8874 7.14866C16.8699 6.73241 15.6906 7.21804 15.2743 8.25866L10.2331 20.6074C10.1868 20.7462 10.1637 20.8849 10.1868 21.0468L11.1349 26.065C11.1812 26.3193 11.3662 26.5275 11.5974 26.6431C11.8287 26.7356 12.1062 26.7125 12.3374 26.5506L16.5231 23.6137C16.6387 23.5212 16.7312 23.4056 16.8006 23.2668L21.8418 10.8949C22.2812 9.90054 21.7725 8.72117 20.755 8.30491ZM12.4531 24.6081L11.7824 21.1393L15.3437 22.5962L12.4531 24.6081ZM16.0143 21.1856L12.2912 19.6824L15.6212 11.4962L19.3443 12.9993L16.0143 21.1856Z" fill="white"/>
<path d="M29.9179 27V8.27336H32.4752L40.0671 20.4204H38.602L46.1672 8.27336H48.7245V27H45.1283V14.4801L45.8209 14.6932L40.5466 23.1641H38.0959L32.8215 14.6932L33.5407 14.4801V27H29.9179ZM58.3305 27.2664C56.9808 27.2664 55.7821 26.9822 54.7343 26.414C53.6866 25.8279 52.8519 25.0288 52.2303 24.0165C51.6265 23.0043 51.3246 21.85 51.3246 20.5536C51.3246 19.2749 51.6177 18.1384 52.2037 17.1439C52.8075 16.1316 53.6244 15.3325 54.6544 14.7464C55.6844 14.1426 56.8299 13.8407 58.0907 13.8407C59.3338 13.8407 60.426 14.1249 61.3672 14.6932C62.3262 15.2437 63.0721 16.0073 63.6048 16.984C64.1554 17.943 64.4306 19.0352 64.4306 20.2605C64.4306 20.4914 64.4129 20.7311 64.3773 20.9798C64.3596 21.2106 64.3152 21.477 64.2441 21.7789L53.4291 21.8056V19.195L62.6192 19.1684L61.2074 20.2605C61.1719 19.4969 61.0298 18.8576 60.7812 18.3426C60.5503 17.8276 60.204 17.4369 59.7423 17.1705C59.2983 16.8864 58.7478 16.7443 58.0907 16.7443C57.3981 16.7443 56.7943 16.9041 56.2793 17.2238C55.7643 17.5257 55.3648 17.9608 55.0806 18.5291C54.8142 19.0796 54.681 19.7367 54.681 20.5003C54.681 21.2817 54.8231 21.9654 55.1073 22.5514C55.4092 23.1197 55.8354 23.5637 56.3859 23.8833C56.9364 24.1852 57.5757 24.3362 58.3038 24.3362C58.9609 24.3362 59.5558 24.2296 60.0886 24.0165C60.6214 23.7857 61.0831 23.4482 61.4738 23.0043L63.5249 25.0554C62.9034 25.7835 62.1397 26.334 61.234 26.707C60.3461 27.0799 59.3782 27.2664 58.3305 27.2664ZM72.7421 27.2664C71.3925 27.2664 70.1938 26.9822 69.146 26.414C68.0982 25.8279 67.2636 25.0288 66.642 24.0165C66.0382 23.0043 65.7363 21.85 65.7363 20.5536C65.7363 19.2749 66.0293 18.1384 66.6154 17.1439C67.2192 16.1316 68.0361 15.3325 69.0661 14.7464C70.0961 14.1426 71.2415 13.8407 72.5024 13.8407C73.7455 13.8407 74.8377 14.1249 75.7789 14.6932C76.7379 15.2437 77.4837 16.0073 78.0165 16.984C78.567 17.943 78.8423 19.0352 78.8423 20.2605C78.8423 20.4914 78.8245 20.7311 78.789 20.9798C78.7712 21.2106 78.7269 21.477 78.6558 21.7789L67.8407 21.8056V19.195L77.0309 19.1684L75.6191 20.2605C75.5835 19.4969 75.4415 18.8576 75.1929 18.3426C74.962 17.8276 74.6157 17.4369 74.154 17.1705C73.71 16.8864 73.1595 16.7443 72.5024 16.7443C71.8098 16.7443 71.206 16.9041 70.691 17.2238C70.176 17.5257 69.7764 17.9608 69.4923 18.5291C69.2259 19.0796 69.0927 19.7367 69.0927 20.5003C69.0927 21.2817 69.2348 21.9654 69.5189 22.5514C69.8208 23.1197 70.247 23.5637 70.7976 23.8833C71.3481 24.1852 71.9874 24.3362 72.7155 24.3362C73.3726 24.3362 73.9675 24.2296 74.5003 24.0165C75.033 23.7857 75.4948 23.4482 75.8854 23.0043L77.9366 25.0554C77.315 25.7835 76.5514 26.334 75.6457 26.707C74.7578 27.0799 73.7899 27.2664 72.7421 27.2664ZM82.5795 27V8.77949H86.0691V27H82.5795ZM79.5694 17.1972V14.1338H89.0793V17.1972H79.5694Z" fill="white"/>
<path d="M91.4863 27V8.27336H95.1091V27H91.4863ZM107.237 27V19.6212C107.237 18.8576 106.997 18.236 106.518 17.7566C106.038 17.2771 105.416 17.0373 104.653 17.0373C104.156 17.0373 103.712 17.1439 103.321 17.357C102.93 17.5701 102.619 17.872 102.389 18.2627C102.175 18.6534 102.069 19.1062 102.069 19.6212L100.71 18.9286C100.71 17.9164 100.924 17.0373 101.35 16.2915C101.794 15.5278 102.397 14.9329 103.161 14.5067C103.942 14.0805 104.822 13.8674 105.798 13.8674C106.74 13.8674 107.583 14.1071 108.329 14.5866C109.075 15.0483 109.661 15.661 110.087 16.4246C110.513 17.1705 110.726 17.9785 110.726 18.8487V27H107.237ZM98.5793 27V14.1338H102.069V27H98.5793ZM121.742 27L116.761 20.3671L121.715 14.1338H125.738L119.93 21.1662L120.064 19.4614L126.004 27H121.742ZM113.537 27V7.7406H117.027V27H113.537Z" fill="#7C93FB"/>
</svg>
